<svg width="18" height="23" viewBox="0 0 18 23" fill="none" xmlns="http://www.w3.org/2000/svg">
<path fill-rule="evenodd" clip-rule="evenodd" d="M2.28597 0H11.5716L18 5.92105V21.0526C18 21.4016 17.8495 21.7363 17.5816 21.983C17.3137 22.2298 16.9504 22.3684 16.5715 22.3684H2.28597C1.9071 22.3684 1.54374 22.2298 1.27584 21.983C1.00793 21.7363 0.857422 21.4016 0.857422 21.0526V1.31579C0.857422 0.96682 1.00793 0.632144 1.27584 0.385386C1.54374 0.138627 1.9071 0 2.28597 0ZM15.8572 5.92105L11.5716 1.97368V5.26316C11.5716 5.43764 11.6468 5.60498 11.7808 5.72836C11.9147 5.85174 12.0964 5.92105 12.2858 5.92105H15.8572ZM6.06663 10.0612C6.20058 9.93785 6.38223 9.86856 6.57163 9.86856C6.76103 9.86856 6.94268 9.93785 7.07662 10.0612L9.42873 12.2276L11.7808 10.0612C11.9156 9.94134 12.096 9.87503 12.2833 9.87653C12.4705 9.87803 12.6497 9.94722 12.7821 10.0692C12.9146 10.1912 12.9897 10.3562 12.9913 10.5287C12.9929 10.7012 12.9209 10.8674 12.7908 10.9914L10.4387 13.1579L12.7908 15.3243C12.9209 15.4484 12.9929 15.6146 12.9913 15.7871C12.9897 15.9596 12.9146 16.1246 12.7821 16.2466C12.6497 16.3686 12.4705 16.4378 12.2833 16.4393C12.096 16.4408 11.9156 16.3744 11.7808 16.2546L9.42873 14.0882L7.07662 16.2546C6.94191 16.3744 6.76148 16.4408 6.5742 16.4393C6.38692 16.4378 6.20777 16.3686 6.07534 16.2466C5.9429 16.1246 5.86778 15.9596 5.86616 15.7871C5.86453 15.6146 5.93652 15.4484 6.06663 15.3243L8.41875 13.1579L6.06663 10.9914C5.93273 10.8681 5.8575 10.7008 5.8575 10.5263C5.8575 10.3519 5.93273 10.1846 6.06663 10.0612Z" fill="#555555"/>
</svg>
