<svg width="25" height="25" viewBox="0 0 25 25" fill="none" xmlns="http://www.w3.org/2000/svg">
<path d="M12.4997 0C5.59637 0 0 5.59662 0 12.4998C0 19.403 5.59637 24.9999 12.4997 24.9999C19.403 24.9999 25 19.403 25 12.4998C24.9999 5.59662 19.403 0 12.4997 0ZM15.4741 5.38045L18.1005 7.76955H15.4741V5.38045ZM14.2313 17.8815V19.249V19.6194H8.41797C7.57897 19.6194 6.89921 18.9395 6.89921 18.1006V6.89921C6.89921 6.06037 7.57913 5.38045 8.41797 5.38045H14.8254V8.41797H18.1003V15.0649H17.0479H16.1834V15.0658H8.60948V15.9303H16.1837V16.9835H8.60948V17.848H14.2313V17.8815ZM20.3676 19.249H18.4155V21.2011H17.0482V19.249H15.0959V17.8815H17.0482V15.9294H18.4155V17.8815H20.3676C20.3676 17.8816 20.3676 19.249 20.3676 19.249Z" fill="#555555"/>
</svg>
