<svg width="18" height="20" viewBox="0 0 18 20" fill="none" xmlns="http://www.w3.org/2000/svg">
<path d="M17.649 6.55453L9.549 0.190893C9.39163 0.0685216 9.1986 0.00216675 9 0.00216675C8.8014 0.00216675 8.60837 0.0685216 8.451 0.190893L0.351 6.55453C0.242087 6.63922 0.153823 6.74798 0.0929802 6.87247C0.032137 6.99696 0.000330372 7.13388 0 7.27271L0 17.2727C0 17.996 0.284463 18.6897 0.790812 19.2012C1.29716 19.7126 1.98392 20 2.7 20H15.3C16.0161 20 16.7028 19.7126 17.2092 19.2012C17.7155 18.6897 18 17.996 18 17.2727V7.27271C17.9997 7.13388 17.9679 6.99696 17.907 6.87247C17.8462 6.74798 17.7579 6.63922 17.649 6.55453ZM10.8 18.1818H7.2V10.9091H10.8V18.1818ZM16.2 17.2727C16.2 17.5138 16.1052 17.745 15.9364 17.9155C15.7676 18.086 15.5387 18.1818 15.3 18.1818H12.6V9.99998C12.6 9.75888 12.5052 9.52765 12.3364 9.35716C12.1676 9.18667 11.9387 9.09089 11.7 9.09089H6.3C6.06131 9.09089 5.83239 9.18667 5.6636 9.35716C5.49482 9.52765 5.4 9.75888 5.4 9.99998V18.1818H2.7C2.46171 18.1785 2.23347 18.0843 2.061 17.9182C1.89654 17.744 1.80332 17.5134 1.8 17.2727V7.71816L9 2.06362L16.2 7.71816V17.2727Z" fill="#243466" fill-opacity="0.8"/>
</svg>
