<svg width="25" height="22" viewBox="0 0 25 22" fill="none" xmlns="http://www.w3.org/2000/svg">
<path d="M22.7272 3.47368H14.3939V1.92982C14.3939 0.864559 13.5454 0 12.5 0C11.4545 0 10.606 0.864559 10.606 1.92982V3.47368H2.27272C1.01743 3.47368 0 4.51039 0 5.78946V19.6842C0 20.9632 1.01743 22 2.27272 22H22.7272C23.9825 22 25 20.9632 25 19.6842V5.78946C25 4.51039 23.9825 3.47368 22.7272 3.47368ZM12.5 1.15789C12.9185 1.15789 13.2575 1.50333 13.2575 1.92982C13.2575 2.35631 12.9185 2.70175 12.5 2.70175C12.0814 2.70175 11.7424 2.35631 11.7424 1.92982C11.7424 1.50333 12.0814 1.15789 12.5 1.15789ZM7.57574 6.75437C9.32423 6.75437 10.7413 8.19867 10.7413 9.97989C10.7413 11.7611 9.32423 13.2054 7.57574 13.2054C5.82725 13.2054 4.41019 11.7612 4.41019 9.97989C4.41019 8.19867 5.82725 6.75437 7.57574 6.75437ZM12.5 19.2982H2.65151V17.8647C2.65151 15.8851 4.22615 14.2807 6.16894 14.2807H8.98293C10.9254 14.2807 12.5 15.8851 12.5 17.8647V19.2982ZM22.3484 11.9649H15.1515V10.807H22.3484V11.9649ZM22.7272 9.26313H13.2575V8.10524H22.7272V9.26313Z" fill="#555555"/>
</svg>
